<svg width="609" height="83" viewBox="0 0 609 83" fill="none" xmlns="http://www.w3.org/2000/svg">
<path d="M1.10001 40.5L607.85 40.5" stroke="#E0EC89" stroke-opacity="0.95" stroke-width="2.2" stroke-linecap="square"/>
<path d="M92.6 40.5L82.1 30H28.1" stroke="#E0EC89" stroke-opacity="0.85" stroke-width="1.5"/>
<path d="M110.6 40.5L100.1 51H8.60001" stroke="#E0EC89" stroke-opacity="0.85" stroke-width="1.5"/>
<path d="M64.1 51L50.6 66H38.6" stroke="#E0EC89" stroke-opacity="0.85" stroke-width="1.5"/>
<path d="M100.1 51L79.85 71.25" stroke="#E0EC89" stroke-opacity="0.85" stroke-width="1.5"/>
<path d="M80.35 70.75H33.85" stroke="#E0EC89" stroke-opacity="0.85" stroke-width="1.5"/>
<path d="M33.85 70.75L24.85 79.75" stroke="#E0EC89" stroke-opacity="0.85" stroke-width="1.5"/>
<path d="M137.6 40.5L178.85 81.75H311.35" stroke="#E0EC89" stroke-opacity="0.85" stroke-width="1.5"/>
<path d="M200.6 40.5V51H355.1" stroke="#E0EC89" stroke-opacity="0.85" stroke-width="1.5"/>
<path d="M200.6 51L188.6 66V75.75H311.6" stroke="#E0EC89" stroke-opacity="0.85" stroke-width="1.5"/>
<path d="M397.1 40.5L407.6 51H526.1" stroke="#E0EC89" stroke-opacity="0.85" stroke-width="1.5"/>
<path d="M367.1 40.5L382.1 22.5L472.1 22.634L485.85 0.883997L543.35 0.75" stroke="#E0EC89" stroke-opacity="0.85" stroke-width="1.5"/>
<path d="M412.1 22.5L425.6 30H553.1" stroke="#E0EC89" stroke-opacity="0.85" stroke-width="1.5"/>
<path d="M472.1 30L488.6 4.50003H599.6" stroke="#E0EC89" stroke-opacity="0.85" stroke-width="1.5"/>
<path d="M568.1 4.50003L580.1 15H608.6" stroke="#E0EC89" stroke-opacity="0.85" stroke-width="1.5"/>
</svg>
